<svg xmlns="http://www.w3.org/2000/svg" xmlns:xlink="http://www.w3.org/1999/xlink" width="500" zoomAndPan="magnify" viewBox="0 0 375 374.999991" height="500" preserveAspectRatio="xMidYMid meet" version="1.0"><defs><g/><clipPath id="id1"><path d="M 119.308594 140 L 188 140 L 188 200 L 119.308594 200 Z M 119.308594 140 " clip-rule="nonzero"/></clipPath><clipPath id="id2"><path d="M 187 108.519531 L 255.808594 108.519531 L 255.808594 169 L 187 169 Z M 187 108.519531 " clip-rule="nonzero"/></clipPath></defs><g clip-path="url(#id1)"><path fill="#0652e9" d="M 165.269531 182.492188 L 165.269531 190.777344 L 127.644531 173.351562 L 127.644531 166.628906 L 165.269531 149.203125 L 165.269531 157.488281 L 136.816406 169.910156 L 136.816406 170.066406 Z M 187.617188 140 L 124.691406 140 C 121.722656 140 119.3125 142.402344 119.3125 145.363281 L 119.3125 194.617188 C 119.3125 197.578125 121.722656 199.980469 124.691406 199.980469 L 170.148438 199.980469 L 187.617188 140 " fill-opacity="1" fill-rule="nonzero"/></g><g clip-path="url(#id2)"><path fill="#62e1e9" d="M 247.488281 142.132812 L 209.863281 159.324219 L 209.863281 151.039062 L 238.945312 138.613281 L 238.945312 138.457031 L 209.863281 126.035156 L 209.863281 117.75 L 247.488281 134.941406 Z M 205.085938 108.546875 L 187.617188 168.527344 L 250.4375 168.527344 C 253.410156 168.527344 255.816406 166.125 255.816406 163.164062 L 255.816406 113.910156 C 255.816406 110.949219 253.410156 108.546875 250.4375 108.546875 L 205.085938 108.546875 " fill-opacity="1" fill-rule="nonzero"/></g><g fill="#ffffff" fill-opacity="1"><g transform="translate(62.10894, 238.284858)"><g><path d="M 8.960938 -19.597656 C 4.3125 -19.597656 0.558594 -16.660156 0.558594 -12.039062 C 0.558594 -5.375 11.757812 -6.832031 11.757812 -2.714844 L 11.757812 -2.238281 C 11.757812 -1.484375 11.253906 -0.839844 10.5 -0.839844 L 3.078125 -1.679688 L 1.679688 -5.597656 L 0.839844 -5.597656 L 1.398438 0 L 19.597656 0 C 24.246094 0 27.996094 -2.941406 27.996094 -7.558594 C 27.996094 -14.25 16.796875 -12.710938 16.796875 -16.882812 L 16.796875 -17.359375 C 16.796875 -18.113281 17.300781 -18.757812 18.058594 -18.757812 L 24.636719 -17.917969 L 26.039062 -14 L 26.878906 -14 L 26.316406 -19.597656 Z M 10.777344 -5.878906 C 12.289062 -5.429688 13.71875 -4.003906 13.4375 -2.101562 C 13.328125 -1.316406 12.765625 -0.980469 12.542969 -0.839844 L 12.488281 -0.839844 C 12.65625 -1.175781 12.765625 -1.398438 12.878906 -2.101562 C 13.160156 -4.085938 11.925781 -5.292969 10.777344 -5.824219 Z M 8.960938 -18.703125 C 5.683594 -18.589844 2.238281 -15.679688 2.238281 -12.039062 C 2.238281 -9.546875 5.066406 -8.035156 7.558594 -7.195312 L 7.558594 -7.140625 C 4.871094 -8.0625 1.679688 -9.15625 1.679688 -12.039062 C 1.679688 -15.988281 4.925781 -18.757812 8.960938 -18.757812 Z M 8.960938 -18.703125 "/></g></g></g><g fill="#ffffff" fill-opacity="1"><g transform="translate(91.897059, 238.284858)"><g><path d="M 1.121094 -19.597656 L 0.558594 -14 L 1.398438 -14 L 2.800781 -17.917969 L 8.679688 -18.757812 L 8.679688 -0.839844 L 5.039062 -1.679688 L 5.039062 0 L 26.316406 0 L 26.316406 -1.679688 L 22.679688 -0.839844 L 22.679688 -18.757812 L 28.558594 -17.917969 L 29.957031 -14 L 30.796875 -14 L 30.238281 -19.597656 Z M 10.359375 -0.839844 L 9.800781 -0.839844 L 9.800781 -18.757812 L 10.359375 -18.757812 Z M 10.359375 -0.839844 "/></g></g></g><g fill="#ffffff" fill-opacity="1"><g transform="translate(124.484792, 238.284858)"><g><path d="M 0.558594 -19.597656 L 0.558594 -17.917969 L 4.199219 -18.757812 L 4.199219 -0.839844 L 0.558594 -1.679688 L 0.558594 0 L 18.199219 0 L 18.199219 -6.746094 C 18.308594 -6.71875 18.421875 -6.71875 18.898438 -6.71875 C 19.347656 -6.71875 19.625 -6.550781 19.933594 -4.871094 C 20.832031 -0.140625 21.027344 0 24.023438 0 L 37.40625 0 L 37.40625 -1.679688 L 33.765625 -0.839844 L 32.757812 -5.066406 C 32.308594 -7.027344 30.714844 -7.140625 27.886719 -7.140625 L 25.980469 -7.140625 L 25.980469 -7.699219 C 31.582031 -7.785156 33.597656 -8.203125 33.597656 -13.4375 C 33.597656 -19.375 30.769531 -19.597656 25.085938 -19.597656 Z M 19.402344 -18.757812 C 20.1875 -18.757812 20.71875 -18.140625 20.800781 -17.359375 C 20.941406 -15.929688 21 -14.699219 21 -13.4375 C 21 -12.179688 20.941406 -10.945312 20.800781 -9.519531 C 20.71875 -8.734375 20.1875 -8.121094 19.402344 -8.121094 L 18.199219 -8.121094 L 18.199219 -18.757812 Z M 5.878906 -0.839844 L 5.320312 -0.839844 L 5.320312 -18.757812 L 5.878906 -18.757812 Z M 21.082031 -18.757812 C 21.867188 -18.757812 22.398438 -18.140625 22.480469 -17.359375 C 22.621094 -15.929688 22.679688 -14.699219 22.679688 -13.4375 C 22.679688 -12.179688 22.621094 -10.945312 22.480469 -9.519531 C 22.398438 -8.734375 21.867188 -8.121094 21.082031 -8.121094 L 21.082031 -8.175781 C 21.558594 -8.398438 21.867188 -8.929688 21.921875 -9.519531 C 22.0625 -10.945312 22.117188 -12.179688 22.117188 -13.4375 C 22.117188 -14.699219 22.089844 -15.929688 21.921875 -17.359375 C 21.867188 -17.945312 21.558594 -18.476562 21.082031 -18.703125 Z M 20.664062 -6.71875 C 21.054688 -6.71875 21.335938 -6.4375 21.613281 -4.871094 C 22.203125 -1.679688 22.480469 -1.035156 23.519531 -0.894531 L 23.519531 -0.839844 C 22.203125 -0.867188 21.726562 -1.371094 21.054688 -4.871094 C 20.71875 -6.605469 20.605469 -6.46875 20.4375 -6.71875 Z M 20.664062 -6.71875 "/></g></g></g><g fill="#ffffff" fill-opacity="1"><g transform="translate(163.67962, 238.284858)"><g><path d="M 9.070312 -19.597656 C 3.386719 -19.597656 0.558594 -15.734375 0.558594 -9.800781 C 0.558594 -4.285156 2.800781 0 9.070312 0 L 23.070312 0 C 29.339844 0 31.582031 -4.285156 31.582031 -9.800781 C 31.582031 -15.734375 28.753906 -19.597656 23.070312 -19.597656 Z M 17.46875 -17.359375 C 17.609375 -15.957031 17.667969 -12.878906 17.667969 -9.800781 C 17.667969 -6.71875 17.609375 -3.640625 17.46875 -2.238281 C 17.386719 -1.457031 16.855469 -0.839844 16.070312 -0.839844 C 15.285156 -0.839844 14.753906 -1.457031 14.671875 -2.238281 C 14.53125 -3.640625 14.445312 -6.71875 14.445312 -9.800781 C 14.445312 -12.878906 14.53125 -15.957031 14.671875 -17.359375 C 14.753906 -18.140625 15.285156 -18.757812 16.070312 -18.757812 C 16.855469 -18.757812 17.386719 -18.140625 17.46875 -17.359375 Z M 17.75 -18.757812 C 18.535156 -18.757812 19.066406 -18.140625 19.148438 -17.359375 C 19.289062 -15.957031 19.347656 -12.878906 19.347656 -9.800781 C 19.347656 -6.71875 19.289062 -3.640625 19.148438 -2.238281 C 19.066406 -1.457031 18.535156 -0.839844 17.75 -0.839844 C 18.476562 -1.230469 18.507812 -1.457031 18.589844 -2.238281 C 18.730469 -3.640625 18.785156 -6.71875 18.785156 -9.800781 C 18.785156 -12.878906 18.730469 -15.957031 18.589844 -17.359375 C 18.507812 -18.140625 18.476562 -18.367188 17.75 -18.757812 Z M 7.617188 -18.449219 C 4.03125 -17.46875 2.238281 -14.503906 2.238281 -9.800781 C 2.238281 -5.320312 3.722656 -2.128906 7.617188 -1.121094 L 7.617188 -1.0625 C 3.277344 -1.933594 1.679688 -5.125 1.679688 -9.800781 C 1.679688 -14.753906 3.640625 -17.667969 7.617188 -18.507812 Z M 7.617188 -18.449219 "/></g></g></g><g fill="#ffffff" fill-opacity="1"><g transform="translate(197.051253, 238.284858)"><g><path d="M 27.4375 -19.597656 L 27.4375 -17.917969 L 30.65625 -18.757812 L 18.199219 -10.332031 L 18.199219 -18.757812 L 21.839844 -17.917969 L 21.839844 -19.597656 L 0.558594 -19.597656 L 0.558594 -17.917969 L 4.199219 -18.757812 L 4.199219 -0.839844 L 0.558594 -1.679688 L 0.558594 0 L 18.199219 0 L 18.199219 -9.492188 L 20.550781 0 L 37.964844 0 L 37.964844 -1.679688 L 34.324219 -0.839844 L 28.949219 -16.15625 L 32.335938 -18.757812 L 35.558594 -17.917969 L 35.558594 -19.597656 Z M 5.878906 -0.839844 L 5.320312 -0.839844 L 5.320312 -18.757812 L 5.878906 -18.757812 Z M 22.34375 -0.839844 L 21.753906 -0.839844 L 19.429688 -10.191406 L 19.933594 -10.527344 Z M 22.34375 -0.839844 "/></g></g></g><g fill="#ffffff" fill-opacity="1"><g transform="translate(236.806011, 238.284858)"><g><path d="M 0.558594 -19.597656 L 0.558594 -17.917969 L 4.199219 -18.757812 L 4.199219 -0.839844 L 0.558594 -1.679688 L 0.558594 0 L 29.957031 0 L 30.515625 -5.597656 L 29.675781 -5.597656 L 28.277344 -1.679688 L 18.199219 -0.839844 L 18.199219 -9.378906 L 25.476562 -8.960938 L 24.636719 -5.597656 L 26.316406 -5.597656 L 26.316406 -14 L 24.636719 -14 L 25.476562 -10.640625 L 18.199219 -10.21875 L 18.199219 -18.757812 L 27.71875 -17.917969 L 29.117188 -14 L 29.957031 -14 L 29.398438 -19.597656 Z M 5.878906 -0.839844 L 5.320312 -0.839844 L 5.320312 -18.757812 L 5.878906 -18.757812 Z M 5.878906 -0.839844 "/></g></g></g><g fill="#ffffff" fill-opacity="1"><g transform="translate(269.113779, 238.284858)"><g><path d="M 8.960938 -19.597656 C 4.3125 -19.597656 0.558594 -16.660156 0.558594 -12.039062 C 0.558594 -5.375 11.757812 -6.832031 11.757812 -2.714844 L 11.757812 -2.238281 C 11.757812 -1.484375 11.253906 -0.839844 10.5 -0.839844 L 3.078125 -1.679688 L 1.679688 -5.597656 L 0.839844 -5.597656 L 1.398438 0 L 19.597656 0 C 24.246094 0 27.996094 -2.941406 27.996094 -7.558594 C 27.996094 -14.25 16.796875 -12.710938 16.796875 -16.882812 L 16.796875 -17.359375 C 16.796875 -18.113281 17.300781 -18.757812 18.058594 -18.757812 L 24.636719 -17.917969 L 26.039062 -14 L 26.878906 -14 L 26.316406 -19.597656 Z M 10.777344 -5.878906 C 12.289062 -5.429688 13.71875 -4.003906 13.4375 -2.101562 C 13.328125 -1.316406 12.765625 -0.980469 12.542969 -0.839844 L 12.488281 -0.839844 C 12.65625 -1.175781 12.765625 -1.398438 12.878906 -2.101562 C 13.160156 -4.085938 11.925781 -5.292969 10.777344 -5.824219 Z M 8.960938 -18.703125 C 5.683594 -18.589844 2.238281 -15.679688 2.238281 -12.039062 C 2.238281 -9.546875 5.066406 -8.035156 7.558594 -7.195312 L 7.558594 -7.140625 C 4.871094 -8.0625 1.679688 -9.15625 1.679688 -12.039062 C 1.679688 -15.988281 4.925781 -18.757812 8.960938 -18.757812 Z M 8.960938 -18.703125 "/></g></g></g><g fill="#ffffff" fill-opacity="1"><g transform="translate(298.897987, 238.284858)"><g/></g></g><g fill="#ffffff" fill-opacity="1"><g transform="translate(95.065941, 263.422483)"><g><path d="M 4.460938 0.101562 C 5.898438 0.101562 7.148438 -0.6875 7.808594 -1.847656 L 7.125 -2.238281 C 6.609375 -1.3125 5.609375 -0.699219 4.460938 -0.699219 C 2.773438 -0.699219 1.414062 -2.050781 1.414062 -3.75 C 1.414062 -5.449219 2.773438 -6.796875 4.460938 -6.796875 C 5.609375 -6.796875 6.609375 -6.1875 7.125 -5.261719 L 7.808594 -5.648438 C 7.148438 -6.8125 5.898438 -7.597656 4.460938 -7.597656 C 2.335938 -7.597656 0.613281 -5.875 0.613281 -3.75 C 0.613281 -1.625 2.335938 0.101562 4.460938 0.101562 Z M 4.460938 0.101562 "/></g></g></g><g fill="#ffffff" fill-opacity="1"><g transform="translate(106.637845, 263.422483)"><g><path d="M 4.460938 0.101562 C 6.597656 0.101562 8.308594 -1.625 8.308594 -3.75 C 8.308594 -5.875 6.597656 -7.597656 4.460938 -7.597656 C 2.335938 -7.597656 0.613281 -5.875 0.613281 -3.75 C 0.613281 -1.625 2.335938 0.101562 4.460938 0.101562 Z M 4.460938 -0.699219 C 2.773438 -0.699219 1.414062 -2.050781 1.414062 -3.75 C 1.414062 -5.449219 2.773438 -6.796875 4.460938 -6.796875 C 6.160156 -6.796875 7.511719 -5.449219 7.511719 -3.75 C 7.511719 -2.050781 6.160156 -0.699219 4.460938 -0.699219 Z M 4.460938 -0.699219 "/></g></g></g><g fill="#ffffff" fill-opacity="1"><g transform="translate(118.921972, 263.422483)"><g><path d="M 0.914062 0 L 2.960938 0 C 5.023438 0 6.710938 -1.675781 6.710938 -3.75 C 6.710938 -5.824219 5.023438 -7.5 2.960938 -7.5 L 0.914062 -7.5 Z M 1.699219 -0.800781 L 1.699219 -6.699219 L 2.949219 -6.699219 C 4.613281 -6.699219 5.910156 -5.4375 5.910156 -3.75 C 5.910156 -2.0625 4.613281 -0.800781 2.949219 -0.800781 Z M 1.699219 -0.800781 "/></g></g></g><g fill="#ffffff" fill-opacity="1"><g transform="translate(129.594222, 263.422483)"><g><path d="M 5.074219 -6.722656 L 5.074219 -7.5 L 0.976562 -7.5 L 0.976562 0 L 5.074219 0 L 5.074219 -0.773438 L 1.773438 -0.773438 L 1.773438 -3.363281 L 4.648438 -3.363281 L 4.648438 -4.136719 L 1.773438 -4.136719 L 1.773438 -6.722656 Z M 5.074219 -6.722656 "/></g></g></g><g fill="#ffffff" fill-opacity="1"><g transform="translate(138.767056, 263.422483)"><g><path d="M 2.800781 0.101562 C 4.074219 0.101562 5.109375 -0.664062 5.109375 -1.972656 C 5.109375 -4.523438 1.460938 -3.898438 1.460938 -5.6875 C 1.460938 -6.4375 2.074219 -6.796875 2.773438 -6.796875 C 3.347656 -6.796875 3.824219 -6.5625 4.125 -6.136719 L 4.75 -6.660156 C 4.335938 -7.1875 3.613281 -7.597656 2.75 -7.597656 C 1.597656 -7.597656 0.664062 -6.847656 0.664062 -5.625 C 0.664062 -3.210938 4.3125 -3.8125 4.3125 -1.949219 C 4.3125 -1.148438 3.648438 -0.699219 2.8125 -0.699219 C 1.960938 -0.699219 1.351562 -1.164062 1.085938 -1.847656 L 0.363281 -1.425781 C 0.75 -0.5 1.6875 0.101562 2.800781 0.101562 Z M 2.800781 0.101562 "/></g></g></g><g fill="#ffffff" fill-opacity="1"><g transform="translate(147.590033, 263.422483)"><g/></g></g><g fill="#ffffff" fill-opacity="1"><g transform="translate(153.951454, 263.422483)"><g><path d="M 5.074219 -6.722656 L 5.074219 -7.5 L 0.976562 -7.5 L 0.976562 0 L 1.773438 0 L 1.773438 -3.363281 L 4.648438 -3.363281 L 4.648438 -4.136719 L 1.773438 -4.136719 L 1.773438 -6.722656 Z M 5.074219 -6.722656 "/></g></g></g><g fill="#ffffff" fill-opacity="1"><g transform="translate(162.599496, 263.422483)"><g><path d="M 4.460938 0.101562 C 6.597656 0.101562 8.308594 -1.625 8.308594 -3.75 C 8.308594 -5.875 6.597656 -7.597656 4.460938 -7.597656 C 2.335938 -7.597656 0.613281 -5.875 0.613281 -3.75 C 0.613281 -1.625 2.335938 0.101562 4.460938 0.101562 Z M 4.460938 -0.699219 C 2.773438 -0.699219 1.414062 -2.050781 1.414062 -3.75 C 1.414062 -5.449219 2.773438 -6.796875 4.460938 -6.796875 C 6.160156 -6.796875 7.511719 -5.449219 7.511719 -3.75 C 7.511719 -2.050781 6.160156 -0.699219 4.460938 -0.699219 Z M 4.460938 -0.699219 "/></g></g></g><g fill="#ffffff" fill-opacity="1"><g transform="translate(174.883623, 263.422483)"><g><path d="M 3.949219 -3.425781 C 4.9375 -3.5625 5.6875 -4.386719 5.6875 -5.398438 C 5.6875 -6.574219 4.75 -7.5 3.597656 -7.5 L 0.914062 -7.5 L 0.914062 0 L 1.710938 0 L 1.710938 -3.386719 L 3.125 -3.386719 L 5.25 0 L 6.160156 0 Z M 1.710938 -4.148438 L 1.710938 -6.699219 L 3.550781 -6.699219 C 4.300781 -6.699219 4.886719 -6.171875 4.886719 -5.421875 C 4.886719 -4.660156 4.3125 -4.148438 3.550781 -4.148438 Z M 1.710938 -4.148438 "/></g></g></g><g fill="#ffffff" fill-opacity="1"><g transform="translate(184.50629, 263.422483)"><g/></g></g><g fill="#ffffff" fill-opacity="1"><g transform="translate(190.867711, 263.422483)"><g><path d="M 5.0625 -7.5 L 0.113281 -7.5 L 0.113281 -6.699219 L 2.1875 -6.699219 L 2.1875 0 L 2.988281 0 L 2.988281 -6.699219 L 5.0625 -6.699219 Z M 5.0625 -7.5 "/></g></g></g><g fill="#ffffff" fill-opacity="1"><g transform="translate(199.390801, 263.422483)"><g><path d="M 5.847656 -7.5 L 5.847656 -4.148438 L 1.710938 -4.148438 L 1.710938 -7.5 L 0.914062 -7.5 L 0.914062 0 L 1.710938 0 L 1.710938 -3.347656 L 5.847656 -3.347656 L 5.847656 0 L 6.648438 0 L 6.648438 -7.5 Z M 5.847656 -7.5 "/></g></g></g><g fill="#ffffff" fill-opacity="1"><g transform="translate(210.300453, 263.422483)"><g><path d="M 5.074219 -6.722656 L 5.074219 -7.5 L 0.976562 -7.5 L 0.976562 0 L 5.074219 0 L 5.074219 -0.773438 L 1.773438 -0.773438 L 1.773438 -3.363281 L 4.648438 -3.363281 L 4.648438 -4.136719 L 1.773438 -4.136719 L 1.773438 -6.722656 Z M 5.074219 -6.722656 "/></g></g></g><g fill="#ffffff" fill-opacity="1"><g transform="translate(219.473281, 263.422483)"><g/></g></g><g fill="#ffffff" fill-opacity="1"><g transform="translate(225.834708, 263.422483)"><g><path d="M 5.074219 -6.722656 L 5.074219 -7.5 L 0.976562 -7.5 L 0.976562 0 L 1.773438 0 L 1.773438 -3.363281 L 4.648438 -3.363281 L 4.648438 -4.136719 L 1.773438 -4.136719 L 1.773438 -6.722656 Z M 5.074219 -6.722656 "/></g></g></g><g fill="#ffffff" fill-opacity="1"><g transform="translate(234.482756, 263.422483)"><g><path d="M 3.6875 0.101562 C 5.324219 0.101562 6.511719 -0.988281 6.511719 -2.460938 L 6.511719 -7.5 L 5.710938 -7.5 L 5.710938 -2.585938 C 5.710938 -1.5 4.847656 -0.699219 3.6875 -0.699219 C 2.523438 -0.699219 1.675781 -1.5 1.675781 -2.585938 L 1.675781 -7.5 L 0.875 -7.5 L 0.875 -2.460938 C 0.875 -0.988281 2.0625 0.101562 3.6875 0.101562 Z M 3.6875 0.101562 "/></g></g></g><g fill="#ffffff" fill-opacity="1"><g transform="translate(245.217496, 263.422483)"><g><path d="M 5.0625 -7.5 L 0.113281 -7.5 L 0.113281 -6.699219 L 2.1875 -6.699219 L 2.1875 0 L 2.988281 0 L 2.988281 -6.699219 L 5.0625 -6.699219 Z M 5.0625 -7.5 "/></g></g></g><g fill="#ffffff" fill-opacity="1"><g transform="translate(253.740575, 263.422483)"><g><path d="M 3.6875 0.101562 C 5.324219 0.101562 6.511719 -0.988281 6.511719 -2.460938 L 6.511719 -7.5 L 5.710938 -7.5 L 5.710938 -2.585938 C 5.710938 -1.5 4.847656 -0.699219 3.6875 -0.699219 C 2.523438 -0.699219 1.675781 -1.5 1.675781 -2.585938 L 1.675781 -7.5 L 0.875 -7.5 L 0.875 -2.460938 C 0.875 -0.988281 2.0625 0.101562 3.6875 0.101562 Z M 3.6875 0.101562 "/></g></g></g><g fill="#ffffff" fill-opacity="1"><g transform="translate(264.475315, 263.422483)"><g><path d="M 3.949219 -3.425781 C 4.9375 -3.5625 5.6875 -4.386719 5.6875 -5.398438 C 5.6875 -6.574219 4.75 -7.5 3.597656 -7.5 L 0.914062 -7.5 L 0.914062 0 L 1.710938 0 L 1.710938 -3.386719 L 3.125 -3.386719 L 5.25 0 L 6.160156 0 Z M 1.710938 -4.148438 L 1.710938 -6.699219 L 3.550781 -6.699219 C 4.300781 -6.699219 4.886719 -6.171875 4.886719 -5.421875 C 4.886719 -4.660156 4.3125 -4.148438 3.550781 -4.148438 Z M 1.710938 -4.148438 "/></g></g></g><g fill="#ffffff" fill-opacity="1"><g transform="translate(274.097988, 263.422483)"><g><path d="M 5.074219 -6.722656 L 5.074219 -7.5 L 0.976562 -7.5 L 0.976562 0 L 5.074219 0 L 5.074219 -0.773438 L 1.773438 -0.773438 L 1.773438 -3.363281 L 4.648438 -3.363281 L 4.648438 -4.136719 L 1.773438 -4.136719 L 1.773438 -6.722656 Z M 5.074219 -6.722656 "/></g></g></g></svg>